<svg width="240" height="278" xmlns="http://www.w3.org/2000/svg" xmlns:xlink="http://www.w3.org/1999/xlink" overflow="hidden"><defs><clipPath id="clip0"><rect x="0" y="0" width="240" height="278"/></clipPath><clipPath id="clip1"><rect x="157" y="90" width="54" height="53"/></clipPath><clipPath id="clip2"><rect x="157" y="90" width="54" height="53"/></clipPath><clipPath id="clip3"><rect x="157" y="90" width="54" height="53"/></clipPath><clipPath id="clip4"><rect x="89" y="128" width="53" height="53"/></clipPath><clipPath id="clip5"><rect x="89" y="128" width="53" height="53"/></clipPath><clipPath id="clip6"><rect x="89" y="128" width="53" height="53"/></clipPath><clipPath id="clip7"><rect x="32" y="87" width="53" height="53"/></clipPath><clipPath id="clip8"><rect x="32" y="87" width="54" height="53"/></clipPath><clipPath id="clip9"><rect x="32" y="87" width="54" height="53"/></clipPath></defs><g clip-path="url(#clip0)"><rect x="0" y="0" width="240" height="278" fill="#FFFFFF"/><path d="M120 6 233 62.5 233 215.5 120 272 7 215.5 7 62.5Z" stroke="#404040" stroke-width="10.3333" stroke-linejoin="round" stroke-miterlimit="10" fill="#E2F0D9" fill-rule="evenodd"/><path d="M81.0936 57.8369C79.8629 58.1046 78.9413 58.8392 78.3287 60.0407 77.7161 61.2422 77.6702 63.0398 78.191 65.4337 78.6567 67.5747 79.4057 69.0494 80.4379 69.8577 81.4701 70.6661 82.5762 70.9419 83.7563 70.6852 85.1386 70.3844 86.1605 69.6236 86.8218 68.4027 87.4832 67.1818 87.5828 65.5093 87.1207 63.3851 86.6183 61.0755 85.8211 59.501 84.7292 58.6615 83.6372 57.8221 82.4254 57.5472 81.0936 57.8369ZM76.0855 51.0076C77.8893 50.6152 79.636 50.6501 81.3256 51.1124 82.5667 51.4604 84.0346 52.324 85.7295 53.7032L84.8658 49.7331 94.5003 47.6371 102.565 84.7085 92.172 86.9695 89.3829 74.1488C88.6024 75.4309 87.6176 76.4838 86.4285 77.3075 85.2393 78.1312 83.844 78.7173 82.2424 79.0657 78.9719 79.7772 76.0104 79.1899 73.3577 77.304 70.7051 75.418 68.902 72.2835 67.9485 67.9003 67.3103 64.967 67.2363 62.2729 67.7263 59.818 68.2163 57.3631 69.2094 55.3947 70.7056 53.9128 72.2017 52.4308 73.995 51.4624 76.0855 51.0076Z" fill="#4472C4" fill-rule="evenodd"/><text fill="#000000" fill-opacity="0" font-family="Arial,Arial_MSFontService,sans-serif" font-size="39.3324" x="67.407" y="82.053">q</text><path d="M123.918 60.9132C122.469 61.4313 120.959 61.889 119.39 62.2864 117.25 62.8565 115.896 63.4177 115.327 63.97 114.741 64.5396 114.448 65.1867 114.448 65.9113 114.448 66.7394 114.738 67.4165 115.316 67.9424 115.894 68.4684 116.744 68.7312 117.865 68.7308 119.038 68.7304 120.129 68.4453 121.138 67.8756 122.148 67.3059 122.863 66.6112 123.286 65.7916 123.708 64.9719 123.919 63.9065 123.918 62.5953ZM118.918 45.8535C122.075 45.8523 124.611 46.0282 126.526 46.3812 128.441 46.7342 130.038 47.4711 131.315 48.5921 132.212 49.3681 132.92 50.4677 133.438 51.8909 133.956 53.314 134.215 54.6726 134.216 55.9665L134.22 68.1037C134.221 69.3977 134.303 70.4112 134.467 71.1444 134.631 71.8776 134.99 72.8134 135.542 73.9519L125.657 73.9555C125.259 73.2483 125 72.7092 124.88 72.3383 124.759 71.9675 124.638 71.3852 124.517 70.5917 123.137 71.9206 121.766 72.87 120.403 73.4398 118.54 74.1996 116.375 74.58 113.908 74.5809 110.63 74.5821 108.141 73.8239 106.441 72.3063 104.741 70.7887 103.891 68.9171 103.89 66.6915 103.889 64.604 104.501 62.8871 105.725 61.5409 106.95 60.1948 109.209 59.1933 112.504 58.5365 116.455 57.7414 119.017 57.1841 120.19 56.8645 121.363 56.5449 122.605 56.126 123.916 55.608 123.915 54.314 123.648 53.4084 123.113 52.891 122.578 52.3736 121.637 52.1152 120.292 52.1157 118.566 52.1163 117.272 52.3928 116.41 52.9452 115.737 53.3768 115.194 54.1878 114.781 55.3784L104.713 54.3211C105.092 52.5612 105.639 51.1765 106.355 50.1669 107.071 49.1574 108.101 48.2814 109.447 47.5391 110.413 47.0039 111.741 46.5893 113.432 46.2954 115.122 46.0015 116.951 45.8542 118.918 45.8535Z" fill="#4472C4" fill-rule="evenodd"/><text fill="#000000" fill-opacity="0" font-family="Arial,Arial_MSFontService,sans-serif" font-size="28.7274" x="103.89" y="70.99">a</text><path d="M158.789 57.7967C157.474 57.5098 156.266 57.7849 155.166 58.6219 154.065 59.4589 153.262 61.032 152.759 63.3413 152.295 65.4652 152.398 67.1387 153.067 68.3618 153.736 69.5849 154.753 70.3454 156.119 70.6433 157.315 70.9044 158.426 70.6302 159.45 69.8207 160.474 69.0111 161.244 67.4264 161.759 65.0665 162.233 62.8921 162.16 61.2031 161.54 59.9994 160.92 58.7957 160.003 58.0615 158.789 57.7967ZM163.801 50.9704C167.392 51.7537 169.869 53.7334 171.233 56.9094 172.597 60.0854 172.838 63.6961 171.956 67.7415 170.981 72.2084 169.167 75.384 166.513 77.2684 163.859 79.1528 160.898 79.7382 157.627 79.0248 156.043 78.6791 154.656 78.094 153.468 77.2696 152.279 76.4452 151.286 75.3899 150.49 74.1036L147.693 86.9227 137.301 84.6554 145.388 47.5889 155.022 49.6906 154.156 53.6602C155.851 52.282 157.32 51.4193 158.561 51.072 160.234 50.6071 161.981 50.5732 163.801 50.9704Z" fill="#4472C4" fill-rule="evenodd"/><text fill="#000000" fill-opacity="0" font-family="Arial,Arial_MSFontService,sans-serif" font-size="39.3338" x="137.301" y="82.0059">p</text><text fill="#767171" font-family="Arial Black,Arial Black_MSFontService,sans-serif" font-weight="900" font-size="19" transform="translate(85.5831 245)">with <tspan fill="#4472C4" font-family="Calibri,Calibri_MSFontService,sans-serif" font-weight="700" font-size="32" x="50.8333" y="0">R</tspan><tspan font-size="19" x="-11.9202" y="-47">Discrete </tspan><tspan font-size="19" x="-33.3602" y="-24">Optimization</tspan></text><g clip-path="url(#clip1)"><g clip-path="url(#clip2)"><g clip-path="url(#clip3)"><path d="M40.8542 41.4062 34.2292 41.4062 34.2292 36.4375 40.8542 36.4375 40.8542 41.4062ZM29.8125 41.4062 23.1875 41.4062 23.1875 36.4375 29.8125 36.4375 29.8125 41.4062ZM18.7708 41.4062 12.1458 41.4062 12.1458 36.4375 18.7708 36.4375 18.7708 41.4062ZM30.3646 30.3646 30.3646 22.6354 15.4583 30.3646 13.8021 7.72917 9.38542 7.72917 7.72917 30.3646 7.72917 45.2708 45.2708 45.2708 45.2708 30.3646 45.2708 22.6354 30.3646 30.3646Z" stroke="#000000" stroke-width="1.33333" fill="#A5A5A5" transform="matrix(1.01887 0 0 1 157 90)"/></g></g></g><g clip-path="url(#clip4)"><g clip-path="url(#clip5)"><g clip-path="url(#clip6)"><path d="M129.854 169.406 123.229 169.406 123.229 164.438 129.854 164.438 129.854 169.406ZM118.812 169.406 112.188 169.406 112.188 164.438 118.812 164.438 118.812 169.406ZM107.771 169.406 101.146 169.406 101.146 164.438 107.771 164.438 107.771 169.406ZM119.365 158.365 119.365 150.635 104.458 158.365 102.802 135.729 98.3854 135.729 96.7292 158.365 96.7292 173.271 134.271 173.271 134.271 158.365 134.271 150.635 119.365 158.365Z" stroke="#000000" stroke-width="1.33333" fill="#A5A5A5"/></g></g></g><g clip-path="url(#clip7)"><g clip-path="url(#clip8)"><g clip-path="url(#clip9)"><path d="M72.8542 128.406 66.2292 128.406 66.2292 123.438 72.8542 123.438 72.8542 128.406ZM61.8125 128.406 55.1875 128.406 55.1875 123.438 61.8125 123.438 61.8125 128.406ZM50.7708 128.406 44.1458 128.406 44.1458 123.438 50.7708 123.438 50.7708 128.406ZM62.3646 117.365 62.3646 109.635 47.4583 117.365 45.8021 94.7292 41.3854 94.7292 39.7292 117.365 39.7292 132.271 77.2708 132.271 77.2708 117.365 77.2708 109.635 62.3646 117.365Z" stroke="#000000" stroke-width="1.33333" fill="#A5A5A5"/></g></g></g><path d="M94.2404 111.584 148.681 114.057 148.514 117.719 94.0741 115.247ZM95.7392 118.993 85 113 96.2382 108.005ZM147.016 110.31 157.755 116.304 146.517 121.299Z" fill="#ED7D31"/><path d="M9.32436 0.667098 33.3797 7.29398 32.4058 10.829 8.35053 4.20208ZM9.14419 8.22398 0 0 12.0657-2.38096ZM32.586 3.27208 41.7302 11.4961 29.6645 13.877Z" fill="#ED7D31" transform="matrix(1 0 0 -1 142 154.496)"/><path d="M79.9617 152.508 65.4841 145.601 67.0629 142.292 81.5404 149.198ZM81.4644 145.1 89.0246 154.8 76.7283 155.028ZM65.5601 149.7 58 140 70.2963 139.772Z" fill="#ED7D31"/></g></svg>